<svg width="81" height="99" fill="none" xmlns="http://www.w3.org/2000/svg"><g filter="url(#a)" fill="#fff"><path d="M40.428 78.25h.072c11.095 0 20.125-9.028 20.125-20.125v-17.25c0-11.043-8.99-20.05-20.07-20.125h-.173c-11.04.063-20.007 9.076-20.007 20.125v17.25c0 11.097 8.996 20.125 20.053 20.125ZM26.125 40.875A14.395 14.395 0 0 1 40.457 26.5c7.95.017 14.418 6.466 14.418 14.375v17.25c0 7.926-6.449 14.375-14.375 14.375h-.072c-8.018 0-14.303-6.314-14.303-14.375v-17.25Z"/><path d="M37.625 32.25h5.75V49.5h-5.75V32.25Z"/></g><defs><filter id="a" x="-14" y="-5" width="109" height="109" filterUnits="userSpaceOnUse" color-interpolation-filters="sRGB"><feFlood flood-opacity="0" result="BackgroundImageFix"/><feColorMatrix in="SourceAlpha" values="0 0 0 0 0 0 0 0 0 0 0 0 0 0 0 0 0 0 127 0" result="hardAlpha"/><feOffset/><feGaussianBlur stdDeviation="10"/><feComposite in2="hardAlpha" operator="out"/><feColorMatrix values="0 0 0 0 0 0 0 0 0 0 0 0 0 0 0 0 0 0 0.5 0"/><feBlend in2="BackgroundImageFix" result="effect1_dropShadow_5_73"/><feBlend in="SourceGraphic" in2="effect1_dropShadow_5_73" result="shape"/></filter></defs></svg>